<svg xmlns="http://www.w3.org/2000/svg" viewBox="0 0 600 600" width="600" height="600">
  <defs>
    <linearGradient id="bg2" x1="0" y1="0" x2="1" y2="1">
      <stop offset="0%" stop-color="#EAF2FF"/>
      <stop offset="100%" stop-color="#D3E4FB"/>
    </linearGradient>
    <linearGradient id="ic2" x1="0" y1="1" x2="0" y2="0">
      <stop offset="0%" stop-color="#0B3C8A"/>
      <stop offset="100%" stop-color="#1E88E5"/>
    </linearGradient>
  </defs>

  <rect width="600" height="600" fill="url(#bg2)"/>

  <g fill="#0B3C8A" opacity="0.08">
    <circle cx="90" cy="500" r="5"/><circle cx="120" cy="500" r="5"/><circle cx="150" cy="500" r="5"/>
    <circle cx="90" cy="470" r="5"/><circle cx="120" cy="470" r="5"/>
    <circle cx="500" cy="100" r="5"/><circle cx="470" cy="100" r="5"/><circle cx="440" cy="100" r="5"/>
    <circle cx="500" cy="130" r="5"/><circle cx="470" cy="130" r="5"/>
  </g>

  <!-- side team members -->
  <g opacity="0.55">
    <circle cx="205" cy="285" r="42" fill="url(#ic2)"/>
    <path d="M130 430 q75 -70 150 0 z" fill="url(#ic2)"/>
  </g>
  <g opacity="0.55">
    <circle cx="395" cy="285" r="42" fill="url(#ic2)"/>
    <path d="M320 430 q75 -70 150 0 z" fill="url(#ic2)"/>
  </g>

  <!-- lead team member (front/center) -->
  <circle cx="300" cy="255" r="58" fill="#0B1C39"/>
  <path d="M195 440 q105 -95 210 0 z" fill="#0B1C39"/>

  <!-- expert badge -->
  <circle cx="300" cy="140" r="34" fill="#fff" stroke="#0B1C39" stroke-width="6"/>
  <path d="M300 120 l8 16 18 3 -13 13 3 18 -16 -9 -16 9 3 -18 -13 -13 18 -3 z" fill="#0B3C8A"/>
</svg>
